<svg xmlns="http://www.w3.org/2000/svg" width="30" viewBox="0 0 30 30" height="30" version="1.0"><defs><clipPath id="a"><path d="M 3.144531 15 L 27.097656 15 L 27.097656 25.636719 L 3.144531 25.636719 Z M 3.144531 15"/></clipPath><clipPath id="b"><path d="M 10 3.136719 L 20 3.136719 L 20 7 L 10 7 Z M 10 3.136719"/></clipPath><clipPath id="c"><path d="M 3.144531 7 L 27 7 L 27 16 L 3.144531 16 Z M 3.144531 7"/></clipPath></defs><g clip-path="url(#a)"><path fill="#545454" d="M 25.417969 17.214844 L 19.289062 17.214844 C 19.136719 17.960938 18.460938 18.523438 17.652344 18.523438 L 12.597656 18.523438 C 11.789062 18.523438 11.117188 17.960938 10.964844 17.214844 L 4.832031 17.214844 C 3.910156 17.214844 3.164062 16.484375 3.164062 15.585938 L 3.164062 24.011719 C 3.164062 24.910156 3.910156 25.640625 4.832031 25.640625 L 25.417969 25.640625 C 26.339844 25.640625 27.085938 24.910156 27.085938 24.011719 L 27.085938 15.585938 C 27.085938 16.484375 26.339844 17.214844 25.417969 17.214844 Z M 25.417969 17.214844"/></g><g clip-path="url(#b)"><path fill="#545454" d="M 11.667969 6.835938 L 11.667969 5.625 C 11.667969 4.984375 12.199219 4.460938 12.855469 4.460938 L 17.394531 4.460938 C 18.050781 4.460938 18.582031 4.984375 18.582031 5.625 L 18.582031 6.835938 L 19.972656 6.835938 L 19.972656 4.769531 C 19.972656 3.867188 19.226562 3.140625 18.304688 3.140625 L 11.945312 3.140625 C 11.023438 3.140625 10.277344 3.867188 10.277344 4.769531 L 10.277344 6.835938 Z M 11.667969 6.835938"/></g><g clip-path="url(#c)"><path fill="#545454" d="M 24.917969 7.921875 L 5.335938 7.921875 C 4.460938 7.921875 3.753906 8.613281 3.753906 9.46875 L 3.753906 14.367188 C 3.753906 15.21875 4.460938 15.910156 5.335938 15.910156 L 10.964844 15.910156 C 11.121094 15.167969 11.792969 14.613281 12.597656 14.613281 L 17.652344 14.613281 C 18.457031 14.613281 19.128906 15.167969 19.285156 15.910156 L 24.917969 15.910156 C 25.789062 15.910156 26.496094 15.21875 26.496094 14.367188 L 26.496094 9.46875 C 26.496094 8.613281 25.789062 7.921875 24.917969 7.921875 Z M 6.03125 14.253906 C 6.03125 14.507812 5.820312 14.710938 5.5625 14.710938 C 5.304688 14.710938 5.09375 14.507812 5.09375 14.253906 L 5.09375 9.578125 C 5.09375 9.328125 5.304688 9.121094 5.5625 9.121094 C 5.820312 9.121094 6.03125 9.328125 6.03125 9.578125 Z M 6.03125 14.253906"/></g><path fill="#545454" d="M 16.214844 15.726562 L 14.039062 15.726562 C 13.757812 15.726562 13.515625 15.882812 13.398438 16.109375 L 15.125 16.109375 C 15.382812 16.109375 15.59375 16.316406 15.59375 16.570312 C 15.59375 16.820312 15.382812 17.027344 15.125 17.027344 L 13.398438 17.027344 C 13.515625 17.253906 13.757812 17.410156 14.039062 17.410156 L 16.214844 17.410156 C 16.609375 17.410156 16.929688 17.097656 16.929688 16.707031 L 16.929688 16.429688 C 16.929688 16.039062 16.609375 15.726562 16.214844 15.726562 Z M 16.214844 15.726562"/></svg>